<?xml version="1.0" encoding="UTF-8" standalone="no"?>
<!-- Created with Inkscape (http://www.inkscape.org/) -->

<svg
   width="512"
   height="512"
   viewBox="0 0 512 512"
   version="1.1"
   id="svg5"
   sodipodi:docname="sailboat_hull.svg"
   inkscape:version="1.1.1 (3bf5ae0d25, 2021-09-20)"
   xmlns:inkscape="http://www.inkscape.org/namespaces/inkscape"
   xmlns:sodipodi="http://sodipodi.sourceforge.net/DTD/sodipodi-0.dtd"
   xmlns="http://www.w3.org/2000/svg"
   xmlns:svg="http://www.w3.org/2000/svg">
  <sodipodi:namedview
     id="namedview7"
     pagecolor="#ffffff"
     bordercolor="#111111"
     borderopacity="1"
     inkscape:pageshadow="0"
     inkscape:pageopacity="0"
     inkscape:pagecheckerboard="1"
     inkscape:document-units="px"
     showgrid="false"
     inkscape:zoom="1.2578125"
     inkscape:cx="326.75776"
     inkscape:cy="189.61491"
     inkscape:window-width="1920"
     inkscape:window-height="1009"
     inkscape:window-x="-8"
     inkscape:window-y="-8"
     inkscape:window-maximized="1"
     inkscape:current-layer="layer1" />
  <defs
     id="defs2" />
  <g
     inkscape:label="Layer 1"
     inkscape:groupmode="layer"
     id="layer1">
    <path
       style="fill:none;stroke:#000000;stroke-width:1px;stroke-linecap:butt;stroke-linejoin:miter;stroke-opacity:1"
       d="m 484.96894,256 c 0,0 -64.39751,-56.4472 -126.40993,-67.57764 -62.01243,-11.13043 -150.26087,-9.93789 -205.91305,-4.77019 -43.96907,4.08284 -108.124221,21.46584 -108.124221,21.46584 l 0,118.85715 c 0,0 69.398281,18.30976 114.484471,21.86335 80.69566,6.36025 167.35403,3.18012 218.23602,-13.51553 C 428.12422,315.62733 484.96894,256 484.96894,256 Z"
       id="path909"
       sodipodi:nodetypes="cssccssc" />
    <path
       style="fill:none;stroke:#000000;stroke-width:1px;stroke-linecap:butt;stroke-linejoin:miter;stroke-opacity:1"
       d="M 44.919255,228.17391 H 448"
       id="path1537" />
    <path
       style="fill:none;stroke:#000000;stroke-width:1px;stroke-linecap:butt;stroke-linejoin:miter;stroke-opacity:1"
       d="M 44.521739,242.88199 H 469.46584"
       id="path1539" />
    <path
       style="fill:none;stroke:#000000;stroke-width:1px;stroke-linecap:butt;stroke-linejoin:miter;stroke-opacity:1"
       d="M 44.521739,213.86335 H 423.35404"
       id="path1541" />
    <path
       style="fill:none;stroke:#000000;stroke-width:1px;stroke-linecap:butt;stroke-linejoin:miter;stroke-opacity:1"
       d="M 69.962733,198.36025 H 390.75776"
       id="path1543" />
    <path
       style="fill:none;stroke:#000000;stroke-width:1px;stroke-linecap:butt;stroke-linejoin:miter;stroke-opacity:1"
       d="M 44.124224,259.97516 H 480.19876"
       id="path1545" />
    <path
       style="fill:none;stroke:#000000;stroke-width:1px;stroke-linecap:butt;stroke-linejoin:miter;stroke-opacity:1"
       d="M 44.124224,274.28571 H 466.68323"
       id="path1547" />
    <path
       style="fill:none;stroke:#000000;stroke-width:1px;stroke-linecap:butt;stroke-linejoin:miter;stroke-opacity:1"
       d="M 44.919255,288.19876 H 449.98758"
       id="path1549" />
    <path
       style="fill:none;stroke:#000000;stroke-width:1px;stroke-linecap:butt;stroke-linejoin:miter;stroke-opacity:1"
       d="M 44.124224,303.70186 H 429.31677"
       id="path1551" />
    <path
       style="fill:none;stroke:#000000;stroke-width:1px;stroke-linecap:butt;stroke-linejoin:miter;stroke-opacity:1"
       d="M 44.322981,318.01242 H 407.45342"
       id="path1553" />
    <path
       style="fill:none;stroke:#000000;stroke-width:1px;stroke-linecap:butt;stroke-linejoin:miter;stroke-opacity:1"
       d="M 95.006211,335.50311 H 363.72671"
       id="path1555" />
    <path
       style="fill:none;stroke:#000000;stroke-width:1px;stroke-linecap:butt;stroke-linejoin:miter;stroke-opacity:1"
       d="m 174.1118,197.96273 c 0,-16.29813 0,-16.29813 0,-16.29813"
       id="path1939" />
    <path
       style="fill:none;stroke:#000000;stroke-width:1px;stroke-linecap:butt;stroke-linejoin:miter;stroke-opacity:1"
       d="m 239.70186,213.46584 c 0,-15.10559 0,-15.10559 0,-15.10559"
       id="path1941" />
    <path
       style="fill:none;stroke:#000000;stroke-width:1px;stroke-linecap:butt;stroke-linejoin:miter;stroke-opacity:1"
       d="M 153.44099,227.7764 V 213.46584"
       id="path1943" />
    <path
       style="fill:none;stroke:#000000;stroke-width:1px;stroke-linecap:butt;stroke-linejoin:miter;stroke-opacity:1"
       d="m 90.63354,198.36025 v 14.70807"
       id="path1945" />
    <path
       style="fill:none;stroke:#000000;stroke-width:1px;stroke-linecap:butt;stroke-linejoin:miter;stroke-opacity:1"
       d="m 350.6087,198.36025 v 14.31056"
       id="path1947" />
    <path
       style="fill:none;stroke:#000000;stroke-width:1px;stroke-linecap:butt;stroke-linejoin:miter;stroke-opacity:1"
       d="M 283.82609,198.36025 V 181.26708"
       id="path1949" />
    <path
       style="fill:none;stroke:#000000;stroke-width:1px;stroke-linecap:butt;stroke-linejoin:miter;stroke-opacity:1"
       d="m 266.3354,213.06832 v 15.50311"
       id="path1951" />
    <path
       style="fill:none;stroke:#000000;stroke-width:1px;stroke-linecap:butt;stroke-linejoin:miter;stroke-opacity:1"
       d="m 382.01242,213.06832 v 14.31056"
       id="path1953" />
    <path
       style="fill:none;stroke:#000000;stroke-width:1px;stroke-linecap:butt;stroke-linejoin:miter;stroke-opacity:1"
       d="M 60.819876,214.26087 V 227.7764"
       id="path1955" />
    <path
       style="fill:none;stroke:#000000;stroke-width:1px;stroke-linecap:butt;stroke-linejoin:miter;stroke-opacity:1"
       d="m 100.57143,228.17391 v 14.31056"
       id="path1957" />
    <path
       style="fill:none;stroke:#000000;stroke-width:1px;stroke-linecap:butt;stroke-linejoin:miter;stroke-opacity:1"
       d="m 215.0559,228.17391 v 14.31056"
       id="path1959" />
    <path
       style="fill:none;stroke:#000000;stroke-width:1px;stroke-linecap:butt;stroke-linejoin:miter;stroke-opacity:1"
       d="m 323.57764,227.7764 v 14.31056"
       id="path1961" />
    <path
       style="fill:none;stroke:#000000;stroke-width:1px;stroke-linecap:butt;stroke-linejoin:miter;stroke-opacity:1"
       d="m 422.95652,228.57143 v 13.51553"
       id="path1963" />
    <path
       style="fill:none;stroke:#000000;stroke-width:1px;stroke-linecap:butt;stroke-linejoin:miter;stroke-opacity:1"
       d="m 355.7764,242.88199 v 16.29813"
       id="path1965" />
    <path
       style="fill:none;stroke:#000000;stroke-width:1px;stroke-linecap:butt;stroke-linejoin:miter;stroke-opacity:1"
       d="m 455.95031,243.2795 v 15.90062"
       id="path1967" />
    <path
       style="fill:none;stroke:#000000;stroke-width:1px;stroke-linecap:butt;stroke-linejoin:miter;stroke-opacity:1"
       d="m 250.43478,242.48447 v 17.09317"
       id="path1969" />
    <path
       style="fill:none;stroke:#000000;stroke-width:1px;stroke-linecap:butt;stroke-linejoin:miter;stroke-opacity:1"
       d="m 159.80124,242.48447 v 17.09317"
       id="path1971" />
    <path
       style="fill:none;stroke:#000000;stroke-width:1px;stroke-linecap:butt;stroke-linejoin:miter;stroke-opacity:1"
       d="m 67.180124,243.2795 v 15.90062"
       id="path1973" />
    <path
       style="fill:none;stroke:#000000;stroke-width:1px;stroke-linecap:butt;stroke-linejoin:miter;stroke-opacity:1"
       d="M 114.48447,259.97516 V 273.8882"
       id="path1975" />
    <path
       style="fill:none;stroke:#000000;stroke-width:1px;stroke-linecap:butt;stroke-linejoin:miter;stroke-opacity:1"
       d="M 201.93789,259.57764 V 273.8882"
       id="path1977" />
    <path
       style="fill:none;stroke:#000000;stroke-width:1px;stroke-linecap:butt;stroke-linejoin:miter;stroke-opacity:1"
       d="m 286.21118,259.97516 v 13.51552"
       id="path1979" />
    <path
       style="fill:none;stroke:#000000;stroke-width:1px;stroke-linecap:butt;stroke-linejoin:miter;stroke-opacity:1"
       d="M 365.31677,259.97516 V 273.8882"
       id="path1981" />
    <path
       style="fill:none;stroke:#000000;stroke-width:1px;stroke-linecap:butt;stroke-linejoin:miter;stroke-opacity:1"
       d="m 440.84472,260.37267 v 13.11801"
       id="path1983" />
    <path
       style="fill:none;stroke:#000000;stroke-width:1px;stroke-linecap:butt;stroke-linejoin:miter;stroke-opacity:1"
       d="m 75.52795,274.28571 v 13.11802"
       id="path1985" />
    <path
       style="fill:none;stroke:#000000;stroke-width:1px;stroke-linecap:butt;stroke-linejoin:miter;stroke-opacity:1"
       d="m 150.26087,274.28571 v 13.51553"
       id="path1987" />
    <path
       style="fill:none;stroke:#000000;stroke-width:1px;stroke-linecap:butt;stroke-linejoin:miter;stroke-opacity:1"
       d="m 235.32919,274.28571 v 13.91305"
       id="path1989" />
    <path
       style="fill:none;stroke:#000000;stroke-width:1px;stroke-linecap:butt;stroke-linejoin:miter;stroke-opacity:1"
       d="m 316.42236,274.28571 v 13.11802"
       id="path1991" />
    <path
       style="fill:none;stroke:#000000;stroke-width:1px;stroke-linecap:butt;stroke-linejoin:miter;stroke-opacity:1"
       d="m 388.77019,273.8882 v 13.91304"
       id="path1993" />
    <path
       style="fill:none;stroke:#000000;stroke-width:1px;stroke-linecap:butt;stroke-linejoin:miter;stroke-opacity:1"
       d="m 366.50932,287.80124 v 15.10559"
       id="path1995" />
    <path
       style="fill:none;stroke:#000000;stroke-width:1px;stroke-linecap:butt;stroke-linejoin:miter;stroke-opacity:1"
       d="m 266.73292,288.59627 v 14.70808"
       id="path1997" />
    <path
       style="fill:none;stroke:#000000;stroke-width:1px;stroke-linecap:butt;stroke-linejoin:miter;stroke-opacity:1"
       d="m 163.37888,288.99379 v 15.10559"
       id="path1999" />
    <path
       style="fill:none;stroke:#000000;stroke-width:1px;stroke-linecap:butt;stroke-linejoin:miter;stroke-opacity:1"
       d="m 87.055901,287.80124 v 15.90062"
       id="path2001" />
    <path
       style="fill:none;stroke:#000000;stroke-width:1px;stroke-linecap:butt;stroke-linejoin:miter;stroke-opacity:1"
       d="m 122.03727,303.30435 v 14.70807"
       id="path2003" />
    <path
       style="fill:none;stroke:#000000;stroke-width:1px;stroke-linecap:butt;stroke-linejoin:miter;stroke-opacity:1"
       d="m 207.90062,303.70186 v 13.51553"
       id="path2005" />
    <path
       style="fill:none;stroke:#000000;stroke-width:1px;stroke-linecap:butt;stroke-linejoin:miter;stroke-opacity:1"
       d="m 304.89441,303.70186 v 13.91305"
       id="path2007" />
    <path
       style="fill:none;stroke:#000000;stroke-width:1px;stroke-linecap:butt;stroke-linejoin:miter;stroke-opacity:1"
       d="m 386.78261,303.30435 v 13.91304"
       id="path2009" />
    <path
       style="fill:none;stroke:#000000;stroke-width:1px;stroke-linecap:butt;stroke-linejoin:miter;stroke-opacity:1"
       d="m 321.98758,318.40994 v 16.69565"
       id="path2011" />
    <path
       style="fill:none;stroke:#000000;stroke-width:1px;stroke-linecap:butt;stroke-linejoin:miter;stroke-opacity:1"
       d="m 227.7764,318.40994 v 16.69565"
       id="path2013" />
    <path
       style="fill:none;stroke:#000000;stroke-width:1px;stroke-linecap:butt;stroke-linejoin:miter;stroke-opacity:1"
       d="m 133.56522,317.21739 v 18.28572"
       id="path2015" />
    <path
       style="fill:none;stroke:#000000;stroke-width:1px;stroke-linecap:butt;stroke-linejoin:miter;stroke-opacity:1"
       d="M 195.97516,335.10559 V 348.2236"
       id="path2017" />
    <path
       style="fill:#784421;stroke:#000000;stroke-width:1px;stroke-linecap:butt;stroke-linejoin:miter;stroke-opacity:1"
       d="m 299.32919,335.90062 v 10.33541"
       id="path2019" />
    <path
       style="fill:#502d16;stroke:#000000;stroke-width:0.562172"
       d="m 174.83545,190.09546 v -7.50794 l 8.01094,-0.3816 c 31.50386,-1.50069 65.78158,-1.92103 89.38533,-1.09611 l 10.54072,0.36838 v 8.06261 8.06261 h -53.9685 -53.96849 z"
       id="path4332" />
    <path
       style="fill:#502d16;stroke:#000000;stroke-width:0.562172"
       d="m 91.634012,206.31707 v -7.02715 h 73.644508 73.64452 v 7.02715 7.02715 H 165.27852 91.634012 Z"
       id="path4371" />
    <path
       style="fill:#502d16;stroke:#000000;stroke-width:0.562172"
       d="m 101.19093,235.55001 v -6.46498 h 56.49827 56.49828 v 6.46498 6.46497 H 157.6892 101.19093 Z"
       id="path4410" />
    <path
       style="fill:#502d16;stroke:#000000;stroke-width:0.562172"
       d="m 160.78115,251.5719 v -7.8704 h 44.41158 44.41157 v 7.8704 7.87041 h -44.41157 -44.41158 z"
       id="path4449" />
    <path
       style="fill:#502d16;stroke:#000000;stroke-width:0.562172"
       d="m 287.16331,267.03273 0.17457,-6.46608 h 38.47474 38.47474 v 6.46498 6.46498 l -38.64932,0.001 -38.64931,10e-4 0.17458,-6.46608 z"
       id="path4488" />
    <path
       style="fill:#502d16;stroke:#000000;stroke-width:0.562172"
       d="m 324.37316,235.55001 v -6.46498 h 48.90895 48.90895 v 6.46498 6.46497 h -48.90895 -48.90895 z"
       id="path4566" />
    <path
       style="fill:#502d16;stroke:#000000;stroke-width:0.562172"
       d="m 240.60955,206.30866 v -7.01874 h 54.53067 54.53067 v 6.74606 c 0,5.62172 0.14054,6.74607 0.84326,6.74607 0.70271,0 0.84326,-1.12435 0.84326,-6.74607 v -6.74606 h 20.42235 20.42234 l 3.6105,1.45705 c 4.4905,1.81218 20.9103,9.73697 23.56695,11.37427 l 1.96694,1.21222 -90.36846,-0.003 -90.36848,-0.003 z"
       id="path4605" />
    <path
       style="fill:#502d16;stroke:#000000;stroke-width:0.562172"
       d="m 236.11218,281.36701 v -6.18389 h 39.63311 39.63312 v 6.18389 6.18389 h -39.63312 -39.63311 z"
       id="path4644" />
    <path
       style="fill:#502d16;stroke:#000000;stroke-width:0.562172"
       d="m 87.698809,295.98348 v -6.74606 h 37.384431 37.38442 v 6.74606 6.74606 H 125.08324 87.698809 Z"
       id="path4683" />
    <path
       style="fill:#502d16;stroke:#000000;stroke-width:0.562172"
       d="m 122.55346,310.85807 v -6.44201 h 42.16289 42.16289 v 6.47354 6.47355 l -42.16289,-0.0315 -42.16289,-0.0315 v -6.44201 z"
       id="path4722" />
    <path
       style="fill:#502d16;stroke:#000000;stroke-width:0.562172"
       d="m 251.29082,251.5719 v -7.8704 h 51.71981 51.71981 v 7.8704 7.87041 h -51.71981 -51.71981 z"
       id="path4761" />
    <path
       style="fill:#502d16;stroke:#000000;stroke-width:0.562172"
       d="m 305.82149,310.88103 v -6.46497 h 40.19528 40.19529 v 6.46497 6.46498 h -40.19529 -40.19528 z"
       id="path4800" />
    <path
       style="fill:#502d16;stroke:#000000;stroke-width:0.562172"
       d="m 343.34646,334.9141 -20.65982,-0.15462 v -7.86348 -7.86347 h 40.47638 c 22.262,0 40.47637,0.12467 40.47637,0.27706 0,0.50175 -14.51238,7.56087 -20.21263,9.83184 -4.95568,1.97434 -19.09869,6.40841 -19.33126,6.06068 -0.0491,-0.0734 -9.38614,-0.20298 -20.74904,-0.28801 z"
       id="path4839" />
    <path
       style="fill:#502d16;stroke:#000000;stroke-width:0.562172"
       d="m 208.84684,347.67604 c -6.18389,-0.21045 -11.43317,-0.4169 -11.66506,-0.45878 -0.2319,-0.0419 -0.42163,-2.47943 -0.42163,-5.41677 v -5.34064 h 50.87655 50.87655 v 4.4719 4.47191 l -1.82706,0.2853 c -3.46341,0.54082 -20.42018,1.48151 -36.40062,2.01936 -17.30984,0.58258 -33.67311,0.57231 -51.43873,-0.0323 z"
       id="path4878" />
    <path
       style="fill:#502d16;stroke:#000000;stroke-width:0.562172"
       d="m 208.56576,310.88103 v -6.46497 h 47.7846 47.78461 v 6.46497 6.46498 h -47.78461 -47.7846 z"
       id="path4917" />
    <path
       style="fill:#502d16;stroke:#000000;stroke-width:0.562172"
       d="m 389.58509,281.36701 v -6.18389 l 36.9628,0.0231 36.9628,0.023 -2.47608,2.23855 c -1.36185,1.2312 -4.55508,4.00358 -7.09605,6.16083 l -4.61997,3.92229 h -29.86675 -29.86675 z"
       id="path4956" />
    <path
       style="fill:#502d16;stroke:#000000;stroke-width:0.562172"
       d="m 356.41695,251.5719 v -7.8704 h 49.47113 49.47112 v 7.8704 7.87041 h -49.47112 -49.47113 z"
       id="path4995" />
    <path
       style="fill:#502d16;stroke:#000000;stroke-width:0.562172"
       d="m 61.838904,220.93354 v -6.46498 h 45.535916 45.53592 v 6.46498 6.46497 H 107.37482 61.838904 Z"
       id="path5034" />
    <path
       style="fill:#502d16;stroke:#000000;stroke-width:0.562172"
       d="m 68.022794,251.5719 v -7.8704 h 45.535916 45.53592 v 7.8704 7.87041 H 113.55871 68.022794 Z"
       id="path5073" />
    <path
       style="fill:#502d16;stroke:#000000;stroke-width:0.562172"
       d="m 76.455372,281.36701 v -6.18389 h 36.541168 36.54117 v 6.18389 6.18389 H 112.99654 76.455372 Z"
       id="path5112" />
    <path
       style="fill:#502d16;stroke:#000000;stroke-width:0.562172"
       d="m 202.94404,267.03163 v -6.46498 h 41.31963 41.31963 v 6.46498 6.46498 h -41.31963 -41.31963 z"
       id="path5151" />
    <path
       style="fill:#502d16;stroke:#000000;stroke-width:0.562172"
       d="m 151.22423,281.36701 v -6.18389 h 41.60071 41.60072 v 6.18389 6.18389 h -41.60072 -41.60071 z"
       id="path5190" />
    <path
       style="fill:#502d16;stroke:#000000;stroke-width:0.562172"
       d="m 154.03509,220.93354 v -6.46498 h 55.65501 55.65501 v 6.46498 6.46497 H 209.6901 154.03509 Z"
       id="path5229" />
    <path
       style="fill:#502d16;stroke:#000000;stroke-width:0.562172"
       d="m 241.17172,206.31707 v -6.46498 h 53.93447 53.93446 l 0.17458,6.46608 0.17458,6.46608 -54.10905,-10e-4 -54.10904,-0.001 z"
       id="path5268" />
    <path
       style="fill:#502d16;stroke:#000000;stroke-width:0.562172"
       d="m 267.03163,220.93354 v -6.46498 h 57.06044 57.06044 v 6.46498 6.46497 h -57.06044 -57.06044 z"
       id="path5307" />
    <path
       style="fill:#502d16;stroke:#000000;stroke-width:0.562172"
       d="m 284.45896,189.733 v -7.87041 l 3.79466,0.004 c 7.50053,0.008 31.55681,2.02567 47.36298,3.97237 20.13141,2.47939 33.04281,5.16054 45.53591,9.45585 l 6.46498,2.22275 -51.57927,0.0429 -51.57926,0.0429 z"
       id="path5346" />
    <path
       style="fill:#502d16;stroke:#000000;stroke-width:0.562172"
       d="m 215.87399,235.55001 v -6.46498 h 53.40633 53.40632 v 6.46498 6.46497 h -53.40632 -53.40633 z"
       id="path5385" />
    <path
       style="fill:#502d16;stroke:#000000;stroke-width:0.562172"
       d="m 83.763606,196.42323 c 12.932745,-3.24084 43.866964,-8.93305 59.028044,-10.86177 7.32318,-0.93162 25.36323,-2.55501 28.53022,-2.56738 l 1.82706,-0.007 v 7.30823 7.30824 l -46.80081,-0.0618 -46.800803,-0.0618 z"
       id="path5424" />
    <path
       style="fill:#502d16;stroke:#000000;stroke-width:0.562172"
       d="m 45.53592,209.47901 v -3.86521 l 12.640153,-3.16194 12.640153,-3.16194 h 9.565636 9.565634 v 7.02715 7.02715 H 67.741708 45.53592 Z"
       id="path5463" />
    <path
       style="fill:#502d16;stroke:#000000;stroke-width:0.562172"
       d="m 45.53592,220.93354 v -6.46498 h 7.308234 7.308234 v 6.46498 6.46497 H 52.844154 45.53592 Z"
       id="path5502" />
    <path
       style="fill:#502d16;stroke:#000000;stroke-width:0.562172"
       d="m 45.53592,235.55001 v -6.46498 h 27.265335 27.265335 v 6.46498 6.46497 H 72.801255 45.53592 Z"
       id="path5541" />
    <path
       style="fill:#502d16;stroke:#000000;stroke-width:0.562172"
       d="m 45.53592,251.5719 v -7.8704 h 10.400179 10.400179 v 7.8704 7.87041 H 55.936099 45.53592 Z"
       id="path5580" />
    <path
       style="fill:#502d16;stroke:#000000;stroke-width:0.562172"
       d="m 45.53592,267.03163 v -6.46498 h 34.011397 34.011393 v 6.46498 6.46498 H 79.547317 45.53592 Z"
       id="path5619" />
    <path
       style="fill:#502d16;stroke:#000000;stroke-width:0.562172"
       d="m 45.53592,281.36701 v -6.18389 h 14.616468 14.616468 v 6.18389 6.18389 H 60.152388 45.53592 Z"
       id="path5658" />
    <path
       style="fill:#502d16;stroke:#000000;stroke-width:0.562172"
       d="m 45.53592,295.98348 v -6.74606 h 20.238187 20.238186 v 6.74606 6.74606 H 65.774107 45.53592 Z"
       id="path5697" />
    <path
       style="fill:#502d16;stroke:#000000;stroke-width:0.562172"
       d="m 45.53592,310.88103 v -6.46497 h 37.9466 37.9466 v 6.46497 6.46498 h -37.9466 -37.9466 z"
       id="path5736" />
    <path
       style="fill:#502d16;stroke:#000000;stroke-width:0.562172"
       d="m 83.48252,332.49059 c -5.256307,-1.1964 -15.944599,-3.72252 -23.751761,-5.61358 L 45.53592,323.4387 v -2.20309 -2.20308 h 43.568318 43.568322 v 7.8704 7.87041 l -19.81656,-0.0537 -19.816559,-0.0537 -9.556921,-2.17528 z"
       id="path5775" />
    <path
       style="fill:#502d16;stroke:#000000;stroke-width:0.562172"
       d="m 115.24523,267.03163 v -6.46498 h 43.00615 43.00614 v 6.46498 6.46498 h -43.00614 -43.00615 z"
       id="path5814" />
    <path
       style="fill:#502d16;stroke:#000000;stroke-width:0.562172"
       d="m 164.15418,295.98348 v -6.74606 h 50.87655 50.87656 v 6.74606 6.74606 h -50.87656 -50.87655 z"
       id="path5853" />
    <path
       style="fill:#502d16;stroke:#000000;stroke-width:0.562172"
       d="m 134.35907,326.90293 v -7.8704 h 46.37918 46.37918 v 7.8704 7.87041 h -46.37918 -46.37918 z"
       id="path5892" />
    <path
       style="fill:#502d16;stroke:#000000;stroke-width:0.562172"
       d="m 185.23562,346.77558 c -1.23677,-0.0971 -6.67579,-0.44444 -12.08669,-0.77189 -20.10737,-1.21682 -35.74985,-3.13641 -57.34153,-7.03675 -6.02929,-1.08914 -11.21533,-2.07881 -11.52452,-2.19929 -0.3092,-0.12047 19.99223,-0.23901 45.11429,-0.26342 l 45.67646,-0.0444 v 5.34064 5.34063 l -3.79466,-0.0945 c -2.08706,-0.052 -4.80657,-0.17395 -6.04335,-0.27104 z"
       id="path5931" />
    <path
       style="fill:#502d16;stroke:#000000;stroke-width:0.562172"
       d="m 300.19977,340.95723 v -4.49738 l 29.09239,0.0622 c 32.38095,0.0692 31.9297,-0.0368 13.91376,3.26827 -11.57571,2.1236 -38.2728,5.66431 -42.70908,5.66431 -0.16339,0 -0.29707,-2.02382 -0.29707,-4.49737 z"
       id="path5970" />
    <path
       style="fill:#502d16;stroke:#000000;stroke-width:0.562172"
       d="m 228.80394,326.90293 v -7.8704 h 46.0981 46.09809 v 7.8704 7.87041 h -46.09809 -46.0981 z"
       id="path6009" />
    <path
       style="fill:#502d16;stroke:#000000;stroke-width:0.562172"
       d="m 267.5938,295.98348 v -6.74606 h 49.19004 49.19004 v 6.74606 6.74606 H 316.78384 267.5938 Z"
       id="path6048" />
    <path
       style="fill:#502d16;stroke:#000000;stroke-width:0.562172"
       d="m 317.06492,281.36701 v -6.18389 h 35.41683 35.41683 v 6.18389 6.18389 h -35.41683 -35.41683 z"
       id="path6087" />
    <path
       style="fill:#502d16;stroke:#000000;stroke-width:0.562172"
       d="m 367.09822,295.98348 v -6.74606 l 40.05474,0.0125 c 38.03902,0.0119 39.99453,0.0614 38.85815,0.9838 -0.65813,0.53421 -4.59437,3.56432 -8.7472,6.73356 l -7.55059,5.76226 h -31.30755 -31.30755 z"
       id="path6126" />
    <path
       style="fill:#502d16;stroke:#000000;stroke-width:0.562172"
       d="m 387.33641,310.88103 v -6.46497 h 19.67601 c 10.82181,0 19.67601,0.11996 19.67601,0.26658 0,0.35477 -9.24669,6.55759 -14.83853,9.95392 l -4.46094,2.70945 h -10.02628 -10.02627 z"
       id="path6165" />
    <path
       style="fill:#502d16;stroke:#000000;stroke-width:0.562172"
       d="m 365.97388,267.03163 v -6.46498 h 37.10334 37.10334 v 6.46498 6.46498 h -37.10334 -37.10334 z"
       id="path6204" />
    <path
       style="fill:#502d16;stroke:#000000;stroke-width:0.562172"
       d="m 441.86707,267.03163 v -6.46498 l 18.69222,0.0227 18.69221,0.0227 -6.74606,6.42363 -6.74606,6.42364 -11.94615,0.0187 -11.94616,0.0187 z"
       id="path6243" />
    <path
       style="fill:#502d16;stroke:#000000;stroke-width:0.562172"
       d="m 456.48354,251.5719 v -7.8704 h 5.97788 5.97787 l 6.81154,5.41939 c 9.41458,7.49043 8.73352,6.62878 6.81901,8.6271 l -1.62326,1.69432 h -11.98152 -11.98152 z"
       id="path6282" />
    <path
       style="fill:#502d16;stroke:#000000;stroke-width:0.562172"
       d="m 423.87758,235.55001 v -6.46498 h 11.83099 11.831 l 4.33144,2.90821 c 4.35486,2.92392 12.30315,8.62164 13.29809,9.5327 0.30368,0.27808 -8.48726,0.48904 -20.37873,0.48904 h -20.91279 z"
       id="path6321" />
    <path
       style="fill:#502d16;stroke:#000000;stroke-width:0.562172"
       d="m 382.83903,220.93354 v -6.46498 h 20.54752 20.54751 l 8.54488,5.13891 c 4.69968,2.8264 9.42578,5.73564 10.50243,6.46497 l 1.95756,1.32607 h -31.04995 -31.04995 z"
       id="path6360" />
    <path
       style="fill:#803300;stroke:#000000;stroke-width:0.562172"
       d="m 203.50621,267.03163 v -5.90281 h 40.75746 40.75746 v 5.90281 5.9028 h -40.75746 -40.75746 z"
       id="path6571" />
    <path
       style="fill:#803300;stroke:#000000;stroke-width:0.562172"
       d="m 277.29127,259.02082 c 14.14564,-0.0836 37.29307,-0.0836 51.43872,0 14.14565,0.0836 2.57194,0.15203 -25.71936,0.15203 -28.2913,0 -39.86501,-0.0684 -25.71936,-0.15203 z"
       id="path6610" />
    <path
       style="fill:#803300;stroke:#000000;stroke-width:0.562172"
       d="m 251.85299,251.43136 v -7.16769 h 51.15764 51.15764 v 7.16769 7.16769 h -51.15764 -51.15764 z"
       id="path6649" />
    <path
       style="fill:#803300;stroke:#000000;stroke-width:0.562172"
       d="m 101.75311,235.55001 v -5.90281 h 55.93609 55.9361 v 5.90281 5.9028 h -55.9361 -55.93609 z"
       id="path6688" />
    <path
       style="fill:#803300;stroke:#000000;stroke-width:0.562172"
       d="m 154.59726,220.93354 v -5.90281 h 55.09284 55.09284 v 5.90281 5.9028 H 209.6901 154.59726 Z"
       id="path6727" />
    <path
       style="fill:#803300;stroke:#000000;stroke-width:0.562172"
       d="m 86.293379,196.43171 c 3.243419,-0.98635 24.298061,-5.08006 38.871971,-7.55797 13.67463,-2.32502 28.86159,-4.16883 41.94023,-5.09184 l 5.48118,-0.38683 v 6.82308 6.82308 l -43.98995,-0.0483 c -27.44334,-0.0301 -43.355572,-0.24124 -42.303431,-0.5612 z"
       id="path6766" />
    <path
       style="fill:#803300;stroke:#000000;stroke-width:0.562172"
       d="m 175.39762,190.08995 v -6.95129 l 7.44877,-0.37651 c 26.95301,-1.3624 69.92595,-1.88399 89.99826,-1.09236 l 9.36562,0.36937 v 7.50104 7.50103 h -53.40633 -53.40632 z"
       id="path6805" />
    <path
       style="fill:#803300;stroke:#000000;stroke-width:0.562172"
       d="m 68.584966,251.5719 v -7.30823 h 44.973744 44.97375 v 7.30823 7.30824 H 113.55871 68.584966 Z"
       id="path6844" />
    <path
       style="fill:#803300;stroke:#000000;stroke-width:0.562172"
       d="m 115.8074,267.03163 v -5.90281 h 42.44398 42.44397 v 5.90281 5.9028 H 158.25138 115.8074 Z"
       id="path6883" />
    <path
       style="fill:#803300;stroke:#000000;stroke-width:0.562172"
       d="m 151.7864,281.36701 v -5.62172 h 41.03854 41.03855 v 5.62172 5.62172 H 192.82494 151.7864 Z"
       id="path6922" />
    <path
       style="fill:#803300;stroke:#000000;stroke-width:0.562172"
       d="m 164.71635,295.98348 v -6.18389 h 50.31438 50.31438 v 6.18389 6.18389 h -50.31438 -50.31438 z"
       id="path6961" />
    <path
       style="fill:#803300;stroke:#000000;stroke-width:0.562172"
       d="m 123.11564,310.88103 v -5.9028 h 41.60071 41.60072 v 5.9028 5.90281 h -41.60072 -41.60071 z"
       id="path7000" />
    <path
       style="fill:#803300;stroke:#000000;stroke-width:0.562172"
       d="m 134.92124,326.90293 v -7.30823 h 45.81701 45.81701 v 7.30823 7.30824 h -45.81701 -45.81701 z"
       id="path7039" />
    <path
       style="fill:#803300;stroke:#000000;stroke-width:0.562172"
       d="m 209.6901,347.1117 c -5.7201,-0.21408 -10.84289,-0.42152 -11.38398,-0.46099 -0.85416,-0.0623 -0.9838,-0.70143 -0.9838,-4.85022 v -4.77847 h 50.31438 50.31438 v 3.89054 c 0,4.6682 1.04584,4.24709 -12.64887,5.0931 -25.17971,1.55551 -52.8045,1.9596 -75.61211,1.10604 z"
       id="path7078" />
    <path
       style="fill:#803300;stroke:#000000;stroke-width:0.562172"
       d="m 306.38366,310.88103 v -5.9028 h 39.63311 39.63312 v 5.9028 5.90281 h -39.63312 -39.63311 z"
       id="path7117" />
    <path
       style="fill:#803300;stroke:#000000;stroke-width:0.562172"
       d="m 268.15597,295.98348 v -6.18389 h 48.62787 48.62786 v 6.18389 6.18389 h -48.62786 -48.62787 z"
       id="path7156" />
    <path
       style="fill:#803300;stroke:#000000;stroke-width:0.562172"
       d="m 317.6271,281.36701 v -5.62172 h 34.85465 34.85466 v 5.62172 5.62172 H 352.48175 317.6271 Z"
       id="path7195" />
    <path
       style="fill:#803300;stroke:#000000;stroke-width:0.562172"
       d="m 366.53605,267.03163 v -5.90281 h 36.54117 36.54117 v 5.90281 5.9028 h -36.54117 -36.54117 z"
       id="path7234" />
    <path
       style="fill:#803300;stroke:#000000;stroke-width:0.562172"
       d="m 324.93533,235.55001 v -5.90281 h 48.34678 48.34678 v 5.90281 5.9028 h -48.34678 -48.34678 z"
       id="path7273" />
    <path
       style="fill:#803300;stroke:#000000;stroke-width:0.562172"
       d="m 383.4012,220.93354 v -5.90281 h 20.23664 20.23664 l 8.85576,5.38655 c 4.87066,2.9626 9.09608,5.61886 9.38981,5.9028 0.32461,0.31379 -11.085,0.51626 -29.09239,0.51626 H 383.4012 Z"
       id="path7312" />
    <path
       style="fill:#803300;stroke:#000000;stroke-width:0.562172"
       d="m 457.04571,251.5719 v -7.30823 h 5.64949 5.64948 l 6.99939,5.64411 c 3.84966,3.10426 6.99938,5.97429 6.99938,6.37784 0,0.40356 -0.46263,1.15242 -1.02807,1.66413 -0.88683,0.80257 -2.6245,0.93039 -12.64887,0.93039 h -11.6208 z"
       id="path7351" />
    <path
       style="fill:#803300;stroke:#000000;stroke-width:0.562172"
       d="m 339.41126,334.38179 -16.16245,-0.18787 v -7.29961 -7.29961 h 39.10413 c 21.50726,0 38.97124,0.215 38.80883,0.47778 -0.66738,1.07985 -18.52845,8.84045 -26.42222,11.48041 -9.74145,3.25788 -8.30676,3.143 -35.32829,2.8289 z"
       id="path7390" />
    <path
       style="fill:#803300;stroke:#000000;stroke-width:0.562172"
       d="m 46.098092,295.98348 v -6.18389 h 19.676015 19.676014 v 6.18389 6.18389 H 65.774107 46.098092 Z"
       id="path7429" />
    <path
       style="fill:#803300;stroke:#000000;stroke-width:0.562172"
       d="m 77.017544,281.36701 v -5.62172 h 35.978996 35.979 v 5.62172 5.62172 h -35.979 -35.978996 z"
       id="path7468" />
    <path
       style="fill:#803300;stroke:#000000;stroke-width:0.562172"
       d="m 46.098092,220.93354 v -5.90281 h 6.746062 6.746062 v 5.90281 5.9028 h -6.746062 -6.746062 z"
       id="path7507" />
    <path
       style="fill:#803300;stroke:#000000;stroke-width:0.562172"
       d="m 92.196184,206.31707 v -6.46498 h 73.082336 73.08234 v 6.46498 6.46498 H 165.27852 92.196184 Z"
       id="path7546" />
    <path
       style="fill:#803300;stroke:#000000;stroke-width:0.562172"
       d="m 351.81307,206.31817 0.17458,-6.46608 h 20.13549 c 17.20736,0 20.45206,0.13125 22.3123,0.90255 3.7276,1.54553 19.74674,9.20262 22.26667,10.64338 l 2.397,1.37048 -33.73031,0.008 -33.73031,0.008 0.17458,-6.46608 z"
       id="path7585" />
    <path
       style="fill:#803300;stroke:#000000;stroke-width:0.562172"
       d="m 241.7339,206.31707 v -5.90281 h 53.40632 53.40633 v 5.90281 5.9028 H 295.14022 241.7339 Z"
       id="path7624" />
    <path
       style="fill:#803300;stroke:#000000;stroke-width:0.562172"
       d="m 300.76194,340.95723 v -3.93521 l 26.28153,0.0562 26.28154,0.0562 -4.83236,1.03045 c -8.48935,1.81026 -42.56709,6.72749 -46.62332,6.72749 -0.99627,0 -1.10739,-0.39486 -1.10739,-3.9352 z"
       id="path7663" />
    <path
       style="fill:none;stroke:#000000;stroke-width:1px;stroke-linecap:butt;stroke-linejoin:miter;stroke-opacity:1"
       d="m 489.79223,255.22602 c 0,0 -47.64407,-47.22243 -112.29383,-66.61737 C 326.492,173.30672 199.14938,171.88404 147.14848,179.75444 95.859487,187.5171 40.195287,201.25752 40.195287,201.25752 L 39.633116,327.4651 c 0,0 72.801254,19.39493 128.456274,24.45448 55.65501,5.05954 162.38667,2.61081 208.00358,-13.49213 74.56796,-26.32277 113.69926,-83.20143 113.69926,-83.20143 z"
       id="path7952"
       sodipodi:nodetypes="cssccssc" />
    <path
       style="fill:#aa0000;stroke:#000000;stroke-width:0.0993789"
       d="m 280.64596,350.23763 v -2.06372 l 0.32298,-5.9e-4 c 0.9117,-0.002 10.31518,-0.64234 15.37889,-1.04777 32.65434,-2.61454 60.82685,-7.581 81.14285,-14.30446 17.18566,-5.68748 36.43785,-16.51586 57.93131,-32.5834 9.40517,-7.03088 20.03819,-15.78636 29.32335,-24.14553 1.05671,-0.95132 1.45704,-1.25343 1.6646,-1.25621 0.22021,-0.003 0.27329,-0.0494 0.27329,-0.23913 0,-0.17739 0.39837,-0.60026 1.61491,-1.71421 3.66749,-3.35826 10.8853,-10.19665 11.05895,-10.47761 0.0321,-0.0519 0.61474,-0.0944 1.29474,-0.0944 h 1.23637 v 1.04158 1.04157 l -0.91349,1.07023 c -6.61653,7.75175 -14.95649,16.21342 -23.33496,23.67547 -22.13265,19.71184 -47.58925,35.49382 -73.93789,45.83826 -10.68849,4.19629 -18.23217,6.4161 -30.16149,8.87539 -18.27186,3.76682 -43.77496,6.76792 -70.73292,8.32355 l -2.16149,0.12473 z"
       id="path8663" />
    <path
       style="fill:#aa0000;stroke:#000000;stroke-width:0.397516"
       d="m 207.70186,353.32151 c -9.42111,-0.24211 -25.24154,-0.99145 -32.59627,-1.54394 -31.59732,-2.37358 -74.24019,-9.95648 -121.838509,-21.66571 l -12.919255,-3.17815 0.08778,-29.90164 c 0.04828,-16.4459 0.204024,-44.60342 0.3461,-62.57226 l 0.258321,-32.67064 5.219117,-1.24317 c 21.337752,-5.0826 52.931184,-11.71372 73.790546,-15.48785 29.87698,-5.40571 40.95085,-6.74482 69.36646,-8.38811 11.83034,-0.68416 59.60843,-0.93898 75.57476,-0.40308 40.25769,1.35124 73.66392,4.53989 96.54946,9.21571 24.04875,4.91348 48.12161,14.69167 74.13665,30.11366 16.55871,9.81618 38.11542,25.70449 50.07598,36.90834 3.43343,3.21619 3.51468,2.46067 -0.84762,7.88333 -1.74601,2.17039 -2.55638,2.92076 -2.6469,2.45081 -0.0838,-0.435 -0.50754,-0.67732 -1.18451,-0.67732 -0.97221,0 -0.82739,-0.2282 1.86522,-2.93893 1.60565,-1.61641 2.85333,-3.12588 2.77267,-3.35438 -0.39811,-1.1278 -18.49155,-15.14848 -29.16528,-22.60029 -30.61768,-21.37558 -62.72048,-37.19465 -88.05983,-43.39263 -34.10756,-8.34268 -101.90376,-12.41469 -166.3501,-9.99141 -48.34395,1.81781 -72.93056,4.88962 -116.472054,14.55186 -10.647651,2.3628 -35.939997,8.4791 -41.043478,9.9253 l -0.89441,0.25345 v 59.93494 59.93493 l 3.080745,0.82593 c 17.973215,4.81853 54.133217,12.6483 74.633537,16.16051 19.47295,3.33618 29.4087,4.53998 47.30435,5.73127 38.97954,2.59484 77.88508,3.09431 107.05511,1.37439 l 4.49609,-0.2651 -0.12342,1.94371 -0.12343,1.94372 -5.36646,0.27138 c -18.28922,0.92488 -48.95424,1.31465 -66.98137,0.85137 z"
       id="path8702"
       inkscape:export-filename="C:\Users\macca\Documents\SailingSim\resources\newboathull.png"
       inkscape:export-xdpi="300"
       inkscape:export-ydpi="300" />
  </g>
</svg>
