<?xml version="1.0" encoding="UTF-8" standalone="no"?>
<!-- Created with Inkscape (http://www.inkscape.org/) -->

<svg
   width="210mm"
   height="297mm"
   viewBox="0 0 210 297"
   version="1.1"
   id="svg5"
   inkscape:version="1.1.1 (3bf5ae0d25, 2021-09-20)"
   sodipodi:docname="shark.svg"
   xmlns:inkscape="http://www.inkscape.org/namespaces/inkscape"
   xmlns:sodipodi="http://sodipodi.sourceforge.net/DTD/sodipodi-0.dtd"
   xmlns="http://www.w3.org/2000/svg"
   xmlns:svg="http://www.w3.org/2000/svg">
  <sodipodi:namedview
     id="namedview7"
     pagecolor="#ffffff"
     bordercolor="#111111"
     borderopacity="1"
     inkscape:pageshadow="0"
     inkscape:pageopacity="0"
     inkscape:pagecheckerboard="1"
     inkscape:document-units="mm"
     showgrid="false"
     inkscape:zoom="1.1474186"
     inkscape:cx="576.94723"
     inkscape:cy="380.41913"
     inkscape:window-width="1920"
     inkscape:window-height="1009"
     inkscape:window-x="-8"
     inkscape:window-y="-8"
     inkscape:window-maximized="1"
     inkscape:current-layer="layer1" />
  <defs
     id="defs2" />
  <g
     inkscape:label="Layer 1"
     inkscape:groupmode="layer"
     id="layer1">
    <path
       style="fill:none;stroke:#000000;stroke-width:0.264583px;stroke-linecap:butt;stroke-linejoin:miter;stroke-opacity:1"
       d="m 176.22846,99.096072 c -9.24585,-11.670371 -21.07065,-17.591494 -28.23838,-21.937419 0.52928,-1.919087 2.03477,-3.198624 3.78904,-4.412083 -2.9946,-0.196489 -6.31532,1.11525 -7.76093,2.834619 -6.28905,-2.371921 -30.62087,-8.785762 -40.82914,-6.058285 -2.65178,-2.075311 -5.418862,-7.263587 -5.188273,-10.837733 -3.228261,4.304347 -5.418868,8.147514 -5.880049,13.374221 -6.610248,4.304348 -14.157079,5.872367 -19.600156,11.6448 -5.233482,5.550156 -6.883147,12.025217 -3.458849,17.524848 3.280282,5.26833 10.650549,4.82567 17.17896,2.53649 6.120807,-2.14626 10.184396,-5.803186 15.910717,-9.223606 1.98828,3.919108 4.93043,7.096906 11.87538,9.338896 -1.88312,-5.380432 -3.30512,-8.339672 -1.84472,-15.103648 7.8785,-2.459627 18.48498,-2.325183 28.59318,-1.268244 -0.0691,2.407043 0.88079,4.691796 3.70582,6.365106 -0.37466,-2.071048 -0.50474,-3.897519 0.0989,-5.846278 10.10819,1.05694 18.21661,6.091416 30.66847,12.970684"
       id="path2005"
       sodipodi:nodetypes="ccccscccccccccccc"
       inkscape:export-filename="C:\Users\macca\Documents\SailingSim\resources\shark.png"
       inkscape:export-xdpi="300"
       inkscape:export-ydpi="300" />
    <path
       style="fill:none;stroke:#000000;stroke-width:0.264583px;stroke-linecap:butt;stroke-linejoin:miter;stroke-opacity:1"
       d="m 175.24845,100.99844 10.37655,6.74477 -9.39654,-8.647138"
       id="path6319"
       inkscape:export-filename="C:\Users\macca\Documents\SailingSim\resources\shark.png"
       inkscape:export-xdpi="300"
       inkscape:export-ydpi="300" />
    <path
       style="fill:#1a1a1a;stroke:#000000;stroke-width:0.616259;fill-opacity:0.36639118"
       d="m 676.65212,390.02855 c -20.79257,-13.63661 -65.3971,-37.9624 -83.19493,-45.37168 -14.44187,-6.01219 -27.52478,-9.86922 -40.13036,-11.83101 -3.42987,-0.53378 -6.51676,-0.97052 -6.85975,-0.97052 -1.56103,0 -2.92467,10.6954 -2.14109,16.79305 0.29401,2.28786 0.3501,4.15975 0.12465,4.15975 -0.95671,0 -6.69312,-6.12881 -8.29534,-8.86279 -1.81632,-3.09932 -3.37346,-8.54978 -3.38998,-11.86597 -0.009,-1.80111 -0.18817,-1.95892 -2.62872,-2.31501 -7.97726,-1.16393 -29.46666,-2.22156 -45.14096,-2.22167 -18.01547,-1.4e-4 -25.78399,0.44331 -38.20804,2.18102 -6.78306,0.94873 -21.52604,4.22804 -22.9316,5.10071 -1.19974,0.74491 -2.63797,11.4939 -2.64066,19.73568 -0.003,9.28872 1.33448,16.37174 5.25025,27.80377 1.54358,4.50647 2.69222,8.30788 2.55252,8.44758 -0.3456,0.34559 -8.82366,-3.05645 -13.52887,-5.4288 -11.60245,-5.84992 -20.83129,-14.46137 -26.65113,-24.86823 -1.233,-2.20481 -2.44063,-4.00874 -2.68362,-4.00874 -0.60429,0 -9.13119,5.39058 -19.31152,12.20846 -21.70691,14.53736 -32.0219,19.91186 -46.7664,24.36708 -18.91964,5.71678 -35.74964,5.60556 -46.84762,-0.3096 -12.2268,-6.51682 -19.85747,-23.09829 -17.79518,-38.66901 1.73544,-13.10301 8.17393,-25.27705 19.70699,-37.26244 8.69098,-9.03183 19.04499,-16.1503 33.91301,-23.31547 19.46743,-9.3817 32.77279,-16.10705 36.06683,-18.23037 l 3.71325,-2.39354 0.78794,-5.49541 c 0.97438,-6.79568 4.08058,-16.25522 7.70211,-23.45583 2.76825,-5.50404 11.3711,-19.04827 11.81616,-18.60321 0.13203,0.13203 0.69508,2.45056 1.25121,5.15228 2.29907,11.16894 10.63676,26.13733 17.63058,31.6516 1.74569,1.37639 2.07619,1.42685 5.05023,0.77111 14.64769,-3.22963 35.38026,-2.38526 66.65695,2.71473 27.22073,4.43861 53.93572,10.95325 82.61233,20.14559 1.7203,0.55144 2.23338,0.33778 5.95738,-2.48091 5.28321,-3.99885 14.77068,-7.48688 20.44315,-7.51585 1.71736,-0.009 1.63536,0.12695 -2.20002,3.64138 -3.76394,3.44897 -7.9033,9.69748 -7.9033,11.93031 0,0.55466 5.37673,4.08067 13.40362,8.78997 43.7951,25.69415 66.95125,43.80818 88.86434,69.51465 2.84518,3.33769 10.32503,10.79397 16.6219,16.5695 14.52408,13.32156 13.98728,12.80647 13.28052,12.74318 -0.32953,-0.0295 -6.7001,-4.05492 -14.15683,-8.94534 z"
       id="path8334"
       transform="scale(0.26458333)"
       inkscape:export-filename="C:\Users\macca\Documents\SailingSim\resources\shark.png"
       inkscape:export-xdpi="300"
       inkscape:export-ydpi="300" />
    <path
       style="fill:none;stroke:#000000;stroke-width:0.264583px;stroke-linecap:butt;stroke-linejoin:miter;stroke-opacity:1"
       d="m 112.66879,78.590965 c -4.61569,-0.181591 -9.91225,0.715156 -14.287416,5.019426"
       id="path9707"
       sodipodi:nodetypes="cc"
       inkscape:export-filename="C:\Users\macca\Documents\SailingSim\resources\shark.png"
       inkscape:export-xdpi="300"
       inkscape:export-ydpi="300" />
    <path
       style="fill:none;stroke:#000000;stroke-width:0.296697px;stroke-linecap:butt;stroke-linejoin:miter;stroke-opacity:1"
       d="m 112.66879,78.590965 c -5.08875,3.552279 -7.48988,4.017164 -14.287416,5.019426"
       id="path9989"
       sodipodi:nodetypes="cc"
       inkscape:export-filename="C:\Users\macca\Documents\SailingSim\resources\shark.png"
       inkscape:export-xdpi="300"
       inkscape:export-ydpi="300" />
    <path
       style="fill:#666666;fill-opacity:1;stroke:#000000;stroke-width:0.308129"
       d="m 375.15916,313.82776 c 10.0465,-8.72418 22.79166,-14.15413 36.80982,-15.68246 3.51967,-0.38373 11.55485,-0.77683 11.55485,-0.56528 0,0.31616 -6.80537,4.58925 -10.61943,6.66793 -6.57894,3.58555 -13.74073,6.12163 -22.2602,7.88261 -4.29212,0.88719 -14.77669,2.6236 -15.84145,2.6236 -0.66276,0 -0.63885,-0.0621 0.35641,-0.9264 z"
       id="path10796"
       transform="scale(0.26458333)"
       inkscape:export-filename="C:\Users\macca\Documents\SailingSim\resources\shark.png"
       inkscape:export-xdpi="300"
       inkscape:export-ydpi="300" />
  </g>
</svg>
